<svg xmlns="http://www.w3.org/2000/svg" xmlns:xlink="http://www.w3.org/1999/xlink" width="1041pt" height="317pt" viewBox="14.00 14.00 1026.00 303.00">
<g id="graph0" class="graph" transform="scale(1 1) rotate(0) translate(18.4 298.56)">
<title>PRISM</title>
<polygon fill="white" stroke="none" points="-4,4 -4,-284.16 1008,-284.16 1008,4 -4,4"/>
<g id="clust1" class="cluster">
<title>cluster_design</title>
<path fill="#f8f8f8" stroke="#cccccc" d="M20,-8C20,-8 162,-8 162,-8 168,-8 174,-14 174,-20 174,-20 174,-256.32 174,-256.32 174,-262.32 168,-268.32 162,-268.32 162,-268.32 20,-268.32 20,-268.32 14,-268.32 8,-262.32 8,-256.32 8,-256.32 8,-20 8,-20 8,-14 14,-8 20,-8"/>
<text xml:space="preserve" text-anchor="middle" x="91" y="-251.72" font-family="Helvetica,sans-Serif" font-size="14.00">Design</text>
</g>
<g id="clust2" class="cluster">
<title>cluster_trace</title>
<path fill="#f8f8f8" stroke="#cccccc" d="M215,-8C215,-8 385,-8 385,-8 391,-8 397,-14 397,-20 397,-20 397,-256.32 397,-256.32 397,-262.32 391,-268.32 385,-268.32 385,-268.32 215,-268.32 215,-268.32 209,-268.32 203,-262.32 203,-256.32 203,-256.32 203,-20 203,-20 203,-14 209,-8 215,-8"/>
<text xml:space="preserve" text-anchor="middle" x="300" y="-251.72" font-family="Helvetica,sans-Serif" font-size="14.00">Trace &amp; Measurement</text>
</g>
<g id="clust3" class="cluster">
<title>cluster_estimation</title>
<path fill="#f8f8f8" stroke="#cccccc" d="M409,-207.52C409,-207.52 629,-207.52 629,-207.52 635,-207.52 641,-213.52 641,-219.52 641,-219.52 641,-256.32 641,-256.32 641,-262.32 635,-268.32 629,-268.32 629,-268.32 409,-268.32 409,-268.32 403,-268.32 397,-262.32 397,-256.32 397,-256.32 397,-219.52 397,-219.52 397,-213.52 403,-207.52 409,-207.52"/>
<text xml:space="preserve" text-anchor="middle" x="519" y="-251.72" font-family="Helvetica,sans-Serif" font-size="14.00">Estimation</text>
</g>
<g id="clust4" class="cluster">
<title>cluster_eval</title>
<path fill="#f8f8f8" stroke="#cccccc" d="M740,-102C740,-102 984,-102 984,-102 990,-102 996,-108 996,-114 996,-114 996,-260.16 996,-260.16 996,-266.16 990,-272.16 984,-272.16 984,-272.16 740,-272.16 740,-272.16 734,-272.16 728,-266.16 728,-260.16 728,-260.16 728,-114 728,-114 728,-108 734,-102 740,-102"/>
<text xml:space="preserve" text-anchor="middle" x="862" y="-255.56" font-family="Helvetica,sans-Serif" font-size="14.00">Evaluation</text>
</g>
<!-- d1 -->
<g id="node1" class="node">
<title>d1</title>
<path fill="white" stroke="#444444" d="M158.29,-243.52C158.29,-243.52 23.71,-243.52 23.71,-243.52 17.71,-243.52 11.71,-237.52 11.71,-231.52 11.71,-231.52 11.71,-219.52 11.71,-219.52 11.71,-213.52 17.71,-207.52 23.71,-207.52 23.71,-207.52 158.29,-207.52 158.29,-207.52 164.29,-207.52 170.29,-213.52 170.29,-219.52 170.29,-219.52 170.29,-231.52 170.29,-231.52 170.29,-237.52 164.29,-243.52 158.29,-243.52"/>
<text xml:space="preserve" text-anchor="middle" x="91" y="-221.32" font-family="Helvetica,sans-Serif" font-size="14.00">Diagnose the problem</text>
</g>
<!-- d2 -->
<g id="node2" class="node">
<title>d2</title>
<path fill="white" stroke="#444444" d="M162.17,-141.84C162.17,-141.84 19.83,-141.84 19.83,-141.84 13.83,-141.84 7.83,-135.84 7.83,-129.84 7.83,-129.84 7.83,-117.84 7.83,-117.84 7.83,-111.84 13.83,-105.84 19.83,-105.84 19.83,-105.84 162.17,-105.84 162.17,-105.84 168.17,-105.84 174.17,-111.84 174.17,-117.84 174.17,-117.84 174.17,-129.84 174.17,-129.84 174.17,-135.84 168.17,-141.84 162.17,-141.84"/>
<text xml:space="preserve" text-anchor="middle" x="91" y="-119.64" font-family="Helvetica,sans-Serif" font-size="14.00">Map the hidden system</text>
</g>
<!-- d1&#45;&gt;d2 -->
<g id="edge1" class="edge">
<title>d1-&gt;d2</title>
<path fill="none" stroke="#666666" stroke-width="1.1" d="M91,-207.16C91,-191.25 91,-167.51 91,-149.61"/>
<polygon fill="#666666" stroke="#666666" stroke-width="1.1" points="93.1,-150 91,-144 88.9,-150 93.1,-150"/>
</g>
<!-- d3 -->
<g id="node3" class="node">
<title>d3</title>
<path fill="white" stroke="#444444" d="M158.28,-44C158.28,-44 23.72,-44 23.72,-44 17.72,-44 11.72,-38 11.72,-32 11.72,-32 11.72,-20 11.72,-20 11.72,-14 17.72,-8 23.72,-8 23.72,-8 158.28,-8 158.28,-8 164.28,-8 170.28,-14 170.28,-20 170.28,-20 170.28,-32 170.28,-32 170.28,-38 164.28,-44 158.28,-44"/>
<text xml:space="preserve" text-anchor="middle" x="91" y="-21.8" font-family="Helvetica,sans-Serif" font-size="14.00">Structure using theory</text>
</g>
<!-- d2&#45;&gt;d3 -->
<g id="edge2" class="edge">
<title>d2-&gt;d3</title>
<path fill="none" stroke="#666666" stroke-width="1.1" d="M91,-105.71C91,-90.67 91,-68.63 91,-51.69"/>
<polygon fill="#666666" stroke="#666666" stroke-width="1.1" points="93.1,-51.97 91,-45.97 88.9,-51.97 93.1,-51.97"/>
</g>
<!-- t1 -->
<g id="node4" class="node">
<title>t1</title>
<path fill="white" stroke="#444444" d="M341.99,-243.52C341.99,-243.52 258.01,-243.52 258.01,-243.52 252.01,-243.52 246.01,-237.52 246.01,-231.52 246.01,-231.52 246.01,-219.52 246.01,-219.52 246.01,-213.52 252.01,-207.52 258.01,-207.52 258.01,-207.52 341.99,-207.52 341.99,-207.52 347.99,-207.52 353.99,-213.52 353.99,-219.52 353.99,-219.52 353.99,-231.52 353.99,-231.52 353.99,-237.52 347.99,-243.52 341.99,-243.52"/>
<text xml:space="preserve" text-anchor="middle" x="300" y="-221.32" font-family="Helvetica,sans-Serif" font-size="14.00">Trace capture</text>
</g>
<!-- d3&#45;&gt;t1 -->
<g id="edge6" class="edge">
<title>d3-&gt;t1</title>
<path fill="none" stroke="#999999" stroke-width="1.6" d="M170.77,-40.41C260.56,-56.32 395.98,-83.05 411,-102 439.99,-138.57 387.39,-178.1 345.14,-202.09"/>
<polygon fill="#999999" stroke="#999999" stroke-width="1.6" points="343.82,-199.62 338.17,-205.94 346.52,-204.52 343.82,-199.62"/>
</g>
<!-- t2 -->
<g id="node5" class="node">
<title>t2</title>
<path fill="white" stroke="#444444" d="M384.79,-141.84C384.79,-141.84 215.21,-141.84 215.21,-141.84 209.21,-141.84 203.21,-135.84 203.21,-129.84 203.21,-129.84 203.21,-117.84 203.21,-117.84 203.21,-111.84 209.21,-105.84 215.21,-105.84 215.21,-105.84 384.79,-105.84 384.79,-105.84 390.79,-105.84 396.79,-111.84 396.79,-117.84 396.79,-117.84 396.79,-129.84 396.79,-129.84 396.79,-135.84 390.79,-141.84 384.79,-141.84"/>
<text xml:space="preserve" text-anchor="middle" x="300" y="-119.64" font-family="Helvetica,sans-Serif" font-size="14.00">Bootstrap traces to features</text>
</g>
<!-- t1&#45;&gt;t2 -->
<g id="edge3" class="edge">
<title>t1-&gt;t2</title>
<path fill="none" stroke="#666666" stroke-width="1.1" d="M300,-207.16C300,-191.25 300,-167.51 300,-149.61"/>
<polygon fill="#666666" stroke="#666666" stroke-width="1.1" points="302.1,-150 300,-144 297.9,-150 302.1,-150"/>
</g>
<!-- t3 -->
<g id="node6" class="node">
<title>t3</title>
<path fill="white" stroke="#444444" d="M351.33,-44C351.33,-44 248.67,-44 248.67,-44 242.67,-44 236.67,-38 236.67,-32 236.67,-32 236.67,-20 236.67,-20 236.67,-14 242.67,-8 248.67,-8 248.67,-8 351.33,-8 351.33,-8 357.33,-8 363.33,-14 363.33,-20 363.33,-20 363.33,-32 363.33,-32 363.33,-38 357.33,-44 351.33,-44"/>
<text xml:space="preserve" text-anchor="middle" x="300" y="-21.8" font-family="Helvetica,sans-Serif" font-size="14.00">Validate features</text>
</g>
<!-- t2&#45;&gt;t3 -->
<g id="edge4" class="edge">
<title>t2-&gt;t3</title>
<path fill="none" stroke="#666666" stroke-width="1.1" d="M300,-105.71C300,-90.67 300,-68.63 300,-51.69"/>
<polygon fill="#666666" stroke="#666666" stroke-width="1.1" points="302.1,-51.97 300,-45.97 297.9,-51.97 302.1,-51.97"/>
</g>
<!-- e1 -->
<g id="node7" class="node">
<title>e1</title>
<path fill="white" stroke="#444444" d="M629.45,-243.52C629.45,-243.52 408.55,-243.52 408.55,-243.52 402.55,-243.52 396.55,-237.52 396.55,-231.52 396.55,-231.52 396.55,-219.52 396.55,-219.52 396.55,-213.52 402.55,-207.52 408.55,-207.52 408.55,-207.52 629.45,-207.52 629.45,-207.52 635.45,-207.52 641.45,-213.52 641.45,-219.52 641.45,-219.52 641.45,-231.52 641.45,-231.52 641.45,-237.52 635.45,-243.52 629.45,-243.52"/>
<text xml:space="preserve" text-anchor="middle" x="519" y="-221.32" font-family="Helvetica,sans-Serif" font-size="14.00">Statistical / ML / Qualitative analysis</text>
</g>
<!-- t3&#45;&gt;e1 -->
<g id="edge7" class="edge">
<title>t3-&gt;e1</title>
<path fill="none" stroke="#999999" stroke-width="1.6" d="M343.83,-44.44C372.55,-57.35 409.69,-77.02 437,-102 467.44,-129.85 492.06,-171.21 506.12,-198.02"/>
<polygon fill="#999999" stroke="#999999" stroke-width="1.6" points="503.57,-199.18 509.71,-205.03 508.56,-196.63 503.57,-199.18"/>
</g>
<!-- v1 -->
<g id="node8" class="node">
<title>v1</title>
<path fill="white" stroke="#444444" d="M983.74,-247.36C983.74,-247.36 740.26,-247.36 740.26,-247.36 734.26,-247.36 728.26,-241.36 728.26,-235.36 728.26,-235.36 728.26,-215.68 728.26,-215.68 728.26,-209.68 734.26,-203.68 740.26,-203.68 740.26,-203.68 983.74,-203.68 983.74,-203.68 989.74,-203.68 995.74,-209.68 995.74,-215.68 995.74,-215.68 995.74,-235.36 995.74,-235.36 995.74,-241.36 989.74,-247.36 983.74,-247.36"/>
<text xml:space="preserve" text-anchor="middle" x="862" y="-229.72" font-family="Helvetica,sans-Serif" font-size="14.00">Design evaluation:</text>
<text xml:space="preserve" text-anchor="middle" x="862" y="-212.92" font-family="Helvetica,sans-Serif" font-size="14.00">Plausibility, refutation, scope, sensitivity</text>
</g>
<!-- e1&#45;&gt;v1 -->
<g id="edge8" class="edge">
<title>e1-&gt;v1</title>
<path fill="none" stroke="#999999" stroke-width="1.6" d="M641.93,-225.52C667.12,-225.52 692.3,-225.52 717.49,-225.52"/>
<polygon fill="#999999" stroke="#999999" stroke-width="1.6" points="717.47,-228.32 725.47,-225.52 717.47,-222.72 717.47,-228.32"/>
</g>
<!-- v2 -->
<g id="node9" class="node">
<title>v2</title>
<path fill="white" stroke="#444444" d="M935.91,-145.68C935.91,-145.68 788.09,-145.68 788.09,-145.68 782.09,-145.68 776.09,-139.68 776.09,-133.68 776.09,-133.68 776.09,-114 776.09,-114 776.09,-108 782.09,-102 788.09,-102 788.09,-102 935.91,-102 935.91,-102 941.91,-102 947.91,-108 947.91,-114 947.91,-114 947.91,-133.68 947.91,-133.68 947.91,-139.68 941.91,-145.68 935.91,-145.68"/>
<text xml:space="preserve" text-anchor="middle" x="862" y="-128.04" font-family="Helvetica,sans-Serif" font-size="14.00">Identification evaluation:</text>
<text xml:space="preserve" text-anchor="middle" x="862" y="-111.24" font-family="Helvetica,sans-Serif" font-size="14.00">Use theory as compass</text>
</g>
<!-- v1&#45;&gt;v2 -->
<g id="edge5" class="edge">
<title>v1-&gt;v2</title>
<path fill="none" stroke="#666666" stroke-width="1.1" d="M862,-203.38C862,-188.84 862,-169.36 862,-153.44"/>
<polygon fill="#666666" stroke="#666666" stroke-width="1.1" points="864.1,-153.61 862,-147.61 859.9,-153.61 864.1,-153.61"/>
</g>
</g>
</svg>